<svg xmlns="http://www.w3.org/2000/svg" xmlns:xlink="http://www.w3.org/1999/xlink" width="500" zoomAndPan="magnify" viewBox="0 0 375 374.999991" height="500" preserveAspectRatio="xMidYMid meet" version="1.0"><defs><g/><clipPath id="585bfe7278"><path d="M 112.5 37.5 L 262.5 37.5 L 262.5 206 L 112.5 206 Z M 112.5 37.5 " clip-rule="nonzero"/></clipPath><clipPath id="ac331ea1a0"><path d="M 283.785156 278.941406 L 337.785156 278.941406 L 337.785156 313.441406 L 283.785156 313.441406 Z M 283.785156 278.941406 " clip-rule="nonzero"/></clipPath></defs><path fill="#363949" d="M 117.496094 59.230469 L 117.496094 209.269531 C 117.496094 218.441406 124.984375 225.941406 134.144531 225.941406 L 240.359375 225.941406 C 249.515625 225.941406 257.007812 218.441406 257.007812 209.269531 L 257.171875 75.898438 C 257.339844 57.5625 242.355469 42.558594 224.042969 42.558594 L 134.144531 42.558594 C 124.984375 42.558594 117.496094 50.058594 117.496094 59.230469 Z M 117.496094 59.230469 " fill-opacity="1" fill-rule="nonzero"/><path fill="#2795fa" d="M 187.417969 172.59375 C 184.585938 172.59375 182.421875 170.425781 182.421875 167.59375 L 182.421875 115.910156 C 182.421875 113.078125 184.585938 110.910156 187.417969 110.910156 C 190.246094 110.910156 192.410156 113.078125 192.410156 115.910156 L 192.410156 167.59375 C 192.410156 170.425781 190.246094 172.59375 187.417969 172.59375 Z M 187.417969 172.59375 " fill-opacity="1" fill-rule="nonzero"/><path fill="#2795fa" d="M 207.394531 120.914062 L 167.4375 120.914062 C 164.609375 120.914062 162.445312 118.746094 162.445312 115.910156 C 162.445312 113.078125 164.609375 110.910156 167.4375 110.910156 L 207.394531 110.910156 C 210.226562 110.910156 212.390625 113.078125 212.390625 115.910156 C 212.390625 118.746094 210.226562 120.914062 207.394531 120.914062 Z M 207.394531 230.945312 L 142.464844 230.945312 C 139.636719 230.945312 137.472656 228.777344 137.472656 225.941406 C 137.472656 223.109375 139.636719 220.941406 142.464844 220.941406 L 207.394531 220.941406 C 210.226562 220.941406 212.390625 223.109375 212.390625 225.941406 C 212.390625 228.777344 210.226562 230.945312 207.394531 230.945312 Z M 232.367188 230.945312 C 231.035156 230.945312 229.703125 230.445312 228.871094 229.445312 C 227.871094 228.441406 227.371094 227.277344 227.371094 225.941406 C 227.371094 224.609375 227.871094 223.273438 228.871094 222.441406 C 230.703125 220.609375 234.03125 220.609375 235.863281 222.441406 C 236.863281 223.441406 237.359375 224.609375 237.359375 225.941406 C 237.359375 227.277344 236.863281 228.609375 235.863281 229.445312 C 235.03125 230.445312 233.699219 230.945312 232.367188 230.945312 Z M 232.367188 205.9375 L 142.464844 205.9375 C 139.636719 205.9375 137.472656 203.769531 137.472656 200.9375 C 137.472656 198.101562 139.636719 195.933594 142.464844 195.933594 L 232.367188 195.933594 C 235.195312 195.933594 237.359375 198.101562 237.359375 200.9375 C 237.359375 203.769531 235.195312 205.9375 232.367188 205.9375 Z M 232.367188 205.9375 " fill-opacity="1" fill-rule="nonzero"/><g clip-path="url(#585bfe7278)"><path fill="#2795fa" d="M 257.007812 205.9375 C 259.835938 205.9375 262 203.769531 262 200.9375 L 262.167969 97.574219 C 262.167969 94.738281 260.003906 92.570312 257.171875 92.570312 C 254.34375 92.570312 252.179688 94.738281 252.179688 97.574219 L 252.011719 200.9375 C 252.011719 203.769531 254.34375 205.9375 257.007812 205.9375 Z M 262.332031 75.234375 C 262.167969 65.230469 258.171875 55.894531 251.179688 48.726562 C 243.855469 41.558594 234.363281 37.554688 224.042969 37.554688 L 134.144531 37.554688 C 122.15625 37.554688 112.5 47.226562 112.5 59.230469 L 112.5 200.9375 C 112.5 203.769531 114.664062 205.9375 117.496094 205.9375 C 120.324219 205.9375 122.488281 203.769531 122.488281 200.9375 L 122.488281 59.230469 C 122.488281 52.726562 127.648438 47.558594 134.144531 47.558594 L 219.046875 47.558594 L 219.046875 59.230469 C 219.046875 71.230469 228.703125 80.902344 240.691406 80.902344 L 256.671875 80.902344 C 256.839844 80.902344 257.007812 80.902344 257.339844 80.902344 C 259.335938 80.902344 261.167969 79.566406 262 77.902344 C 262.332031 77.234375 262.5 76.566406 262.5 75.898438 C 262.332031 75.734375 262.332031 75.566406 262.332031 75.234375 Z M 229.039062 59.230469 L 229.039062 48.058594 C 234.699219 49.058594 239.859375 51.726562 244.019531 55.894531 C 248.183594 60.0625 250.847656 65.230469 251.84375 70.898438 L 240.691406 70.898438 C 234.199219 70.898438 229.039062 65.730469 229.039062 59.230469 Z M 229.039062 59.230469 " fill-opacity="1" fill-rule="nonzero"/></g><g clip-path="url(#ac331ea1a0)"><path fill="#363949" d="M 288.105469 278.941406 C 285.730469 278.941406 283.785156 280.882812 283.785156 283.253906 L 283.785156 309.128906 C 283.785156 311.5 285.730469 313.441406 288.105469 313.441406 L 333.464844 313.441406 C 335.839844 313.441406 337.785156 311.5 337.785156 309.128906 L 337.785156 283.253906 C 337.785156 280.882812 335.839844 278.941406 333.464844 278.941406 Z M 288.105469 281.097656 L 333.464844 281.097656 C 334.671875 281.097656 335.625 282.046875 335.625 283.253906 L 335.625 309.128906 C 335.625 310.332031 334.671875 311.285156 333.464844 311.285156 L 288.105469 311.285156 C 286.898438 311.285156 285.945312 310.332031 285.945312 309.128906 L 285.945312 283.253906 C 285.945312 282.046875 286.898438 281.097656 288.105469 281.097656 Z M 292.425781 287.566406 L 292.425781 304.816406 L 296.746094 304.816406 L 296.746094 293.328125 L 302.144531 300.503906 L 307.546875 293.328125 L 307.546875 304.816406 L 311.867188 304.816406 L 311.867188 287.566406 L 307.546875 287.566406 L 302.144531 294.808594 L 296.746094 287.566406 Z M 321.585938 287.566406 L 321.585938 296.191406 L 316.1875 296.191406 L 323.746094 304.816406 L 331.304688 296.191406 L 325.90625 296.191406 L 325.90625 287.566406 Z M 321.585938 287.566406 " fill-opacity="1" fill-rule="nonzero"/></g><g fill="#2795fa" fill-opacity="1"><g transform="translate(37.500002, 305.344786)"><g><path d="M 41.632812 -41.824219 C 47.363281 -41.824219 51.949219 -40.488281 55.195312 -37.910156 C 58.347656 -35.238281 59.96875 -31.035156 59.96875 -25.402344 L 59.96875 14.898438 L 44.023438 14.898438 L 44.023438 -23.777344 C 44.023438 -26.070312 43.542969 -27.691406 42.78125 -28.648438 C 41.824219 -29.601562 40.488281 -30.082031 38.675781 -30.082031 L 26.546875 -30.082031 C 22.917969 -30.082031 21.105469 -27.980469 21.105469 -23.777344 L 21.105469 14.898438 L 5.15625 14.898438 L 5.15625 -43.734375 L 21.105469 -43.734375 L 21.105469 -36.574219 C 21.773438 -37.71875 23.011719 -38.867188 24.828125 -40.105469 C 26.546875 -41.253906 28.648438 -41.824219 31.226562 -41.824219 Z M 41.632812 -41.824219 "/></g></g></g><g fill="#2795fa" fill-opacity="1"><g transform="translate(102.623396, 305.344786)"><g><path d="M 44.023438 -24.921875 C 44.023438 -26.832031 43.640625 -28.265625 42.972656 -29.03125 C 42.207031 -29.699219 41.0625 -30.082031 39.726562 -30.082031 L 26.453125 -30.082031 C 24.160156 -30.082031 22.632812 -29.601562 22.058594 -28.839844 C 21.390625 -27.882812 21.105469 -26.546875 21.105469 -24.734375 L 21.105469 -2.101562 C 21.105469 -0.191406 21.390625 1.050781 22.058594 2.003906 C 22.632812 2.769531 24.160156 3.246094 26.453125 3.246094 L 39.726562 3.246094 C 41.0625 3.246094 42.207031 2.863281 42.972656 2.195312 C 43.640625 1.433594 44.023438 0 44.023438 -1.910156 Z M 59.96875 -1.433594 C 59.96875 3.722656 58.441406 7.734375 55.578125 10.695312 C 52.617188 13.558594 48.03125 14.992188 41.730469 14.992188 L 23.394531 14.992188 C 17.09375 14.992188 12.414062 13.558594 9.550781 10.695312 C 6.589844 7.734375 5.15625 3.722656 5.15625 -1.433594 L 5.15625 -25.402344 C 5.15625 -30.558594 6.589844 -34.566406 9.550781 -37.527344 C 12.414062 -40.394531 17.09375 -41.824219 23.394531 -41.824219 L 41.730469 -41.824219 C 48.03125 -41.824219 52.617188 -40.394531 55.578125 -37.527344 C 58.441406 -34.566406 59.96875 -30.558594 59.96875 -25.402344 Z M 59.96875 -1.433594 "/></g></g></g><g fill="#2795fa" fill-opacity="1"><g transform="translate(167.746789, 305.344786)"><g><path d="M 29.792969 -41.921875 L 40.394531 -41.921875 L 40.394531 -30.175781 L 29.792969 -30.175781 L 29.792969 -3.628906 C 29.792969 -1.335938 30.175781 0.09375 31.128906 1.050781 C 31.894531 1.8125 33.421875 2.292969 35.714844 2.292969 L 40.394531 2.292969 L 40.394531 14.992188 L 31.226562 14.992188 C 25.402344 14.992188 21.105469 13.941406 18.238281 11.839844 C 15.277344 9.738281 13.847656 6.113281 13.847656 0.953125 L 13.847656 -30.175781 L 3.246094 -30.175781 L 3.246094 -41.921875 L 13.847656 -41.921875 L 13.847656 -64.457031 L 29.792969 -64.457031 Z M 29.792969 -41.921875 "/></g></g></g><g fill="#2795fa" fill-opacity="1"><g transform="translate(211.38519, 305.344786)"><g><path d="M 38.769531 3.246094 C 40.203125 3.246094 41.445312 2.769531 42.492188 1.8125 C 43.449219 0.859375 44.023438 -0.953125 44.023438 -3.628906 L 59.96875 -3.628906 L 59.96875 -1.527344 C 59.96875 4.105469 58.347656 8.308594 55.195312 10.980469 C 51.949219 13.65625 47.460938 14.992188 41.730469 14.992188 L 23.394531 14.992188 C 17.570312 14.992188 13.082031 13.65625 9.929688 10.980469 C 6.683594 8.308594 5.15625 4.105469 5.15625 -1.527344 L 5.15625 -25.304688 C 5.15625 -30.941406 6.683594 -35.140625 9.929688 -37.816406 C 13.082031 -40.488281 17.570312 -41.824219 23.394531 -41.824219 L 41.730469 -41.824219 C 48.03125 -41.824219 52.617188 -40.296875 55.578125 -37.433594 C 58.441406 -34.472656 59.96875 -30.460938 59.96875 -25.304688 L 59.96875 -17.1875 C 59.96875 -14.515625 59.109375 -12.222656 57.582031 -10.410156 C 55.957031 -8.5 53.570312 -7.640625 50.421875 -7.640625 L 21.105469 -7.640625 L 21.105469 -3.152344 C 21.105469 -1.242188 21.675781 0.191406 22.917969 1.433594 C 24.0625 2.578125 25.496094 3.246094 27.40625 3.246094 Z M 38.675781 -17.667969 C 42.207031 -17.667969 44.023438 -19.386719 44.023438 -23.011719 L 44.023438 -23.683594 C 44.023438 -25.972656 43.542969 -27.597656 42.589844 -28.648438 C 41.632812 -29.601562 40.011719 -30.082031 37.71875 -30.082031 L 27.40625 -30.082031 C 25.113281 -30.082031 23.492188 -29.601562 22.535156 -28.648438 C 21.582031 -27.597656 21.105469 -25.972656 21.105469 -23.683594 L 21.105469 -23.011719 C 21.105469 -19.386719 22.824219 -17.667969 26.453125 -17.667969 Z M 38.675781 -17.667969 "/></g></g></g></svg>