<svg xmlns="http://www.w3.org/2000/svg" xmlns:xlink="http://www.w3.org/1999/xlink" width="500" zoomAndPan="magnify" viewBox="0 0 375 374.999991" height="500" preserveAspectRatio="xMidYMid meet" version="1.0"><defs><g/><clipPath id="3d9f9f2e66"><path d="M 81.941406 37.5 L 292.691406 37.5 L 292.691406 213 L 81.941406 213 Z M 81.941406 37.5 " clip-rule="nonzero"/></clipPath></defs><g clip-path="url(#3d9f9f2e66)"><path stroke-linecap="butt" transform="matrix(0.000000000000000537, 8.770798, -8.78125, 0.000000000000000538, 319.034045, -15.081184)" fill="none" stroke-linejoin="miter" d="M 11.000096 7.999874 L 20.89978 7.999874 L 24.900093 3.999874 L 24.999856 3.999874 L 24.999856 21.999874 C 24.999856 24.208949 23.209023 25.999874 20.999988 25.999874 L 11.000096 25.999874 C 8.791061 25.999874 6.999783 24.208949 6.999783 21.999874 L 6.999783 11.999874 C 6.999783 9.790799 8.791061 7.999874 11.000096 7.999874 Z M 11.000096 7.999874 " stroke="#000000" stroke-width="2" stroke-opacity="1" stroke-miterlimit="10"/><path stroke-linecap="butt" transform="matrix(0.000000000000000537, 8.770798, -8.78125, 0.000000000000000538, 319.034045, -15.081184)" fill="none" stroke-linejoin="miter" d="M 20.999988 20.999874 L 12.999807 20.999874 C 12.447994 20.999874 11.999952 20.55192 11.999952 19.999874 L 11.999952 13.999874 C 11.999952 13.447828 12.447994 12.999874 12.999807 12.999874 L 18.999832 12.999874 C 19.55209 12.999874 20.000132 13.447828 20.000132 13.999874 L 20.000132 19.999874 Z M 20.999988 20.999874 " stroke="#000000" stroke-width="2" stroke-opacity="1" stroke-miterlimit="10"/></g><g fill="#000000" fill-opacity="1"><g transform="translate(78.063091, 323.031468)"><g><path d="M 69.65625 -24.5 C 69.738281 -20.863281 69.015625 -17.601562 67.484375 -14.71875 C 65.960938 -11.832031 63.898438 -9.359375 61.296875 -7.296875 C 58.703125 -5.234375 55.753906 -3.664062 52.453125 -2.59375 C 49.160156 -1.519531 45.863281 -1.023438 42.5625 -1.109375 C 36.539062 -1.191406 31.257812 -2.304688 26.71875 -4.453125 C 22.1875 -6.597656 18.394531 -9.484375 15.34375 -13.109375 C 12.289062 -16.742188 9.976562 -21.035156 8.40625 -25.984375 C 6.84375 -30.929688 6.019531 -36.332031 5.9375 -42.1875 C 5.851562 -48.207031 6.675781 -53.894531 8.40625 -59.25 C 10.144531 -64.613281 12.578125 -69.378906 15.703125 -73.546875 C 18.835938 -77.710938 22.570312 -81.050781 26.90625 -83.5625 C 31.238281 -86.082031 36.003906 -87.507812 41.203125 -87.84375 C 44.253906 -88.007812 47.242188 -87.71875 50.171875 -86.96875 C 53.097656 -86.226562 55.691406 -84.972656 57.953125 -83.203125 C 60.222656 -81.429688 62.078125 -79.140625 63.515625 -76.328125 C 64.960938 -73.523438 65.8125 -70.1875 66.0625 -66.3125 C 63.425781 -68.875 60.765625 -70.484375 58.078125 -71.140625 C 55.398438 -71.796875 52.535156 -71.921875 49.484375 -71.515625 C 46.347656 -71.097656 43.5625 -70.019531 41.125 -68.28125 C 38.695312 -66.550781 36.640625 -64.367188 34.953125 -61.734375 C 33.265625 -59.097656 31.960938 -56.148438 31.046875 -52.890625 C 30.140625 -49.628906 29.644531 -46.269531 29.5625 -42.8125 C 29.40625 -35.882812 30.601562 -30.398438 33.15625 -26.359375 C 35.707031 -22.316406 39.75 -19.59375 45.28125 -18.1875 C 47.257812 -17.6875 49.382812 -17.4375 51.65625 -17.4375 C 53.925781 -17.4375 56.148438 -17.703125 58.328125 -18.234375 C 60.515625 -18.773438 62.597656 -19.5625 64.578125 -20.59375 C 66.554688 -21.625 68.25 -22.925781 69.65625 -24.5 Z M 69.65625 -24.5 "/></g></g></g><g fill="#000000" fill-opacity="1"><g transform="translate(151.050903, 323.031468)"><g><path d="M 70.390625 -87.21875 C 69.160156 -83.757812 67.570312 -80.8125 65.625 -78.375 C 63.6875 -75.9375 61.5 -73.914062 59.0625 -72.3125 C 56.632812 -70.707031 54 -69.507812 51.15625 -68.71875 C 48.3125 -67.9375 45.363281 -67.503906 42.3125 -67.421875 C 44.457031 -64.128906 45.921875 -60.273438 46.703125 -55.859375 C 47.484375 -51.441406 47.75 -46.84375 47.5 -42.0625 C 47.257812 -37.28125 46.519531 -32.515625 45.28125 -27.765625 C 44.039062 -23.023438 42.453125 -18.632812 40.515625 -14.59375 C 38.578125 -10.550781 36.347656 -7.023438 33.828125 -4.015625 C 31.316406 -1.003906 28.617188 1.078125 25.734375 2.234375 C 25.898438 0.410156 26.046875 -2.164062 26.171875 -5.5 C 26.296875 -8.84375 26.375 -12.597656 26.40625 -16.765625 C 26.445312 -20.929688 26.46875 -25.382812 26.46875 -30.125 C 26.46875 -34.863281 26.40625 -39.582031 26.28125 -44.28125 C 26.164062 -48.988281 26.003906 -53.523438 25.796875 -57.890625 C 25.585938 -62.265625 25.359375 -66.144531 25.109375 -69.53125 C 21.972656 -70.4375 19.023438 -71.546875 16.265625 -72.859375 C 13.503906 -74.179688 11.050781 -75.625 8.90625 -77.1875 C 6.757812 -78.757812 4.960938 -80.429688 3.515625 -82.203125 C 2.078125 -83.984375 1.15625 -85.738281 0.75 -87.46875 C 5.851562 -86.8125 11.289062 -86.359375 17.0625 -86.109375 C 22.84375 -85.859375 28.765625 -85.753906 34.828125 -85.796875 C 40.890625 -85.835938 46.929688 -85.984375 52.953125 -86.234375 C 58.972656 -86.484375 64.785156 -86.8125 70.390625 -87.21875 Z M 70.390625 -87.21875 "/></g></g></g><g fill="#000000" fill-opacity="1"><g transform="translate(221.935691, 323.031468)"><g><path d="M 2.34375 -84.625 C 7.050781 -85.28125 11.546875 -85.09375 15.828125 -84.0625 C 20.117188 -83.03125 24.160156 -81.378906 27.953125 -79.109375 C 31.753906 -76.847656 35.28125 -74.046875 38.53125 -70.703125 C 41.789062 -67.359375 44.785156 -63.664062 47.515625 -59.625 C 50.890625 -64.820312 53.914062 -69.769531 56.59375 -74.46875 C 59.28125 -79.175781 61.445312 -83.507812 63.09375 -87.46875 C 65.15625 -83.34375 66.492188 -79.195312 67.109375 -75.03125 C 67.734375 -70.863281 67.753906 -66.71875 67.171875 -62.59375 C 66.597656 -58.476562 65.523438 -54.421875 63.953125 -50.421875 C 62.390625 -46.421875 60.453125 -42.5625 58.140625 -38.84375 C 60.785156 -31.832031 62.664062 -24.90625 63.78125 -18.0625 C 64.894531 -11.21875 65.117188 -5.15625 64.453125 0.125 C 62.722656 -2.1875 60.332031 -5.503906 57.28125 -9.828125 C 54.226562 -14.160156 50.804688 -19.050781 47.015625 -24.5 C 43.546875 -20.78125 39.875 -17.394531 36 -14.34375 C 32.125 -11.300781 28.269531 -8.664062 24.4375 -6.4375 C 20.601562 -4.207031 16.890625 -2.410156 13.296875 -1.046875 C 9.710938 0.304688 6.4375 1.109375 3.46875 1.359375 C 4.457031 -0.046875 6.019531 -2.148438 8.15625 -4.953125 C 10.300781 -7.753906 12.796875 -11.050781 15.640625 -14.84375 C 18.492188 -18.632812 21.585938 -22.773438 24.921875 -27.265625 C 28.265625 -31.765625 31.628906 -36.410156 35.015625 -41.203125 C 31.878906 -45.648438 28.722656 -50.039062 25.546875 -54.375 C 22.367188 -58.707031 19.359375 -62.789062 16.515625 -66.625 C 13.671875 -70.457031 11.03125 -73.921875 8.59375 -77.015625 C 6.164062 -80.109375 4.082031 -82.644531 2.34375 -84.625 Z M 2.34375 -84.625 "/></g></g></g></svg>