<svg xmlns="http://www.w3.org/2000/svg" xmlns:xlink="http://www.w3.org/1999/xlink" width="500" zoomAndPan="magnify" viewBox="0 0 375 374.999991" height="500" preserveAspectRatio="xMidYMid meet" version="1.0"><defs><clipPath id="05e2694882"><path d="M 38 39 L 337 39 L 337 337.5 L 38 337.5 Z M 38 39 " clip-rule="nonzero"/></clipPath><clipPath id="e703e49941"><path d="M 142.53125 166.390625 L 168.78125 166.390625 L 168.78125 208.390625 L 142.53125 208.390625 Z M 142.53125 166.390625 " clip-rule="nonzero"/></clipPath><clipPath id="52db19f9a4"><path d="M 112.394531 123.183594 L 198.644531 123.183594 L 198.644531 240.933594 L 112.394531 240.933594 Z M 112.394531 123.183594 " clip-rule="nonzero"/></clipPath></defs><g clip-path="url(#05e2694882)"><path fill="#ffffff" d="M 253.796875 337.5 C 252.527344 337.5 251.273438 337.355469 250.039062 337.070312 C 248.800781 336.78125 247.613281 336.355469 246.472656 335.792969 C 245.332031 335.234375 244.273438 334.550781 243.289062 333.746094 C 242.308594 332.941406 241.429688 332.035156 240.65625 331.027344 L 151.796875 215.511719 L 101.1875 281.304688 C 100.605469 282.0625 99.964844 282.761719 99.261719 283.40625 C 98.558594 284.054688 97.804688 284.636719 97 285.152344 C 96.195312 285.667969 95.355469 286.109375 94.476562 286.480469 C 93.59375 286.851562 92.691406 287.140625 91.757812 287.355469 C 90.828125 287.570312 89.886719 287.703125 88.933594 287.753906 C 87.980469 287.804688 87.03125 287.773438 86.082031 287.660156 C 85.132812 287.546875 84.203125 287.351562 83.289062 287.078125 C 82.375 286.804688 81.488281 286.453125 80.636719 286.027344 L 47.484375 269.453125 C 46.109375 268.765625 44.855469 267.902344 43.71875 266.863281 C 42.582031 265.824219 41.609375 264.648438 40.800781 263.339844 C 39.992188 262.03125 39.378906 260.636719 38.957031 259.15625 C 38.539062 257.675781 38.328125 256.164062 38.328125 254.628906 L 38.328125 122.03125 C 38.328125 120.492188 38.539062 118.980469 38.957031 117.5 C 39.378906 116.019531 39.992188 114.625 40.800781 113.316406 C 41.609375 112.007812 42.582031 110.832031 43.71875 109.796875 C 44.855469 108.757812 46.109375 107.894531 47.484375 107.203125 L 80.636719 90.628906 C 81.488281 90.203125 82.375 89.851562 83.289062 89.578125 C 84.203125 89.304688 85.132812 89.109375 86.082031 88.996094 C 87.03125 88.882812 87.980469 88.851562 88.933594 88.902344 C 89.886719 88.957031 90.828125 89.085938 91.757812 89.300781 C 92.691406 89.515625 93.59375 89.808594 94.476562 90.179688 C 95.355469 90.546875 96.195312 90.992188 97 91.507812 C 97.804688 92.023438 98.558594 92.601562 99.261719 93.25 C 99.964844 93.894531 100.605469 94.597656 101.1875 95.355469 L 151.796875 161.144531 L 240.664062 45.628906 C 241.246094 44.871094 241.886719 44.171875 242.589844 43.527344 C 243.292969 42.878906 244.046875 42.296875 244.851562 41.78125 C 245.652344 41.265625 246.496094 40.824219 247.375 40.453125 C 248.253906 40.082031 249.160156 39.792969 250.089844 39.578125 C 251.023438 39.363281 251.964844 39.230469 252.917969 39.179688 C 253.871094 39.128906 254.820312 39.160156 255.769531 39.273438 C 256.71875 39.386719 257.648438 39.582031 258.5625 39.855469 C 259.476562 40.128906 260.363281 40.480469 261.214844 40.90625 L 327.515625 74.054688 C 328.890625 74.742188 330.144531 75.609375 331.28125 76.644531 C 332.417969 77.683594 333.390625 78.859375 334.199219 80.167969 C 335.007812 81.476562 335.621094 82.871094 336.042969 84.351562 C 336.460938 85.832031 336.671875 87.34375 336.671875 88.882812 L 336.671875 287.777344 C 336.671875 289.3125 336.464844 290.820312 336.050781 292.300781 C 335.632812 293.777344 335.019531 295.171875 334.214844 296.480469 C 333.410156 297.792969 332.441406 298.964844 331.3125 300.003906 C 330.179688 301.046875 328.925781 301.910156 327.554688 302.601562 L 261.257812 335.75 C 258.910156 336.925781 256.421875 337.507812 253.796875 337.5 Z M 172.707031 188.328125 L 258.605469 299.992188 L 303.523438 277.53125 L 303.523438 99.125 L 258.605469 76.664062 Z M 71.476562 244.382812 L 83.246094 250.269531 L 130.890625 188.328125 L 83.246094 126.390625 L 71.476562 132.273438 Z M 71.476562 244.382812 " fill-opacity="1" fill-rule="nonzero"/></g><g clip-path="url(#e703e49941)"><path fill="#000000" d="M 145.035156 198.59375 C 145.144531 197.8125 145.554688 196.542969 146.265625 194.785156 C 146.960938 193.082031 147.828125 191.464844 148.863281 189.933594 C 149.511719 188.992188 150.277344 188.15625 151.160156 187.421875 C 151.953125 186.722656 152.757812 186.375 153.582031 186.375 C 154.519531 186.34375 155.269531 186.625 155.835938 187.207031 C 156.398438 187.792969 156.828125 188.574219 157.113281 189.546875 C 157.453125 190.714844 157.636719 192.066406 157.664062 193.605469 C 157.695312 195.140625 157.664062 196.707031 157.578125 198.292969 C 157.460938 200.636719 157.332031 202.746094 157.191406 204.613281 C 157.050781 206.484375 157.222656 207.460938 157.699219 207.546875 C 158.039062 207.632812 158.394531 207.5625 158.769531 207.335938 C 159.203125 207.0625 159.601562 206.742188 159.957031 206.375 C 160.75 205.59375 161.542969 204.519531 162.335938 203.148438 C 163.128906 201.777344 163.894531 200.386719 164.632812 198.96875 C 165.367188 197.488281 166.019531 196.09375 166.589844 194.789062 C 167.160156 193.480469 167.570312 192.503906 167.820312 191.859375 C 167.976562 191.859375 168.136719 191.871094 168.292969 191.902344 C 168.460938 191.925781 168.617188 191.980469 168.765625 192.066406 C 168.507812 192.734375 168.082031 193.769531 167.488281 195.164062 C 166.894531 196.554688 166.183594 198.007812 165.355469 199.515625 C 164.929688 200.324219 164.488281 201.117188 164.039062 201.898438 C 163.585938 202.679688 163.132812 203.433594 162.679688 204.160156 C 161.800781 205.472656 160.921875 206.535156 160.042969 207.339844 C 159.300781 208.011719 158.609375 208.363281 157.960938 208.390625 C 157.832031 208.390625 157.703125 208.375 157.578125 208.347656 C 156.730469 208.175781 156.074219 207.726562 155.613281 207.003906 C 155.160156 206.304688 154.847656 205.441406 154.679688 204.40625 C 154.5 203.214844 154.425781 202.015625 154.464844 200.8125 C 154.492188 199.496094 154.566406 198.171875 154.679688 196.835938 C 154.738281 195.972656 154.792969 195.132812 154.847656 194.324219 C 154.898438 193.515625 154.953125 192.722656 155.011719 191.941406 C 155.039062 190.578125 154.941406 189.449219 154.714844 188.558594 C 154.488281 187.667969 153.992188 187.21875 153.230469 187.214844 C 152.292969 187.214844 151.199219 188.105469 149.953125 189.890625 C 148.652344 191.777344 147.617188 193.796875 146.847656 195.953125 C 146.375 197.152344 145.996094 198.378906 145.703125 199.636719 C 145.433594 200.75 145.277344 201.875 145.234375 203.019531 C 145.0625 203.691406 144.609375 203.984375 143.867188 203.898438 C 143.128906 203.808594 142.734375 203.117188 142.683594 201.8125 C 142.683594 199.660156 142.65625 197.234375 142.597656 194.535156 C 142.566406 192.804688 142.554688 191.058594 142.554688 189.304688 L 142.554688 186.34375 C 142.582031 184.53125 142.636719 182.757812 142.71875 181.027344 C 142.792969 179.371094 142.953125 177.722656 143.195312 176.085938 C 143.5625 173.238281 144.1875 170.910156 145.066406 169.101562 C 145.941406 167.292969 147.148438 166.425781 148.679688 166.5 L 148.890625 166.5 C 149.480469 166.523438 149.988281 166.730469 150.417969 167.132812 C 150.878906 167.601562 151.21875 168.144531 151.4375 168.765625 C 151.894531 170.078125 152.050781 171.792969 151.910156 173.90625 C 151.769531 176.023438 151.277344 178.324219 150.425781 180.816406 C 149.710938 183.003906 148.804688 185.109375 147.707031 187.136719 C 146.902344 188.664062 145.996094 190.128906 144.992188 191.53125 L 144.992188 191.738281 C 144.9375 194.441406 144.949219 196.726562 145.035156 198.59375 Z M 146.890625 187.023438 C 147.824219 185.15625 148.613281 183.234375 149.257812 181.25 C 149.960938 179.066406 150.441406 176.832031 150.703125 174.550781 C 150.929688 172.429688 150.914062 170.738281 150.660156 169.484375 C 150.542969 168.785156 150.34375 168.242188 150.066406 167.851562 C 149.789062 167.460938 149.449219 167.25 149.046875 167.222656 C 148.710938 167.222656 148.402344 167.445312 148.117188 167.894531 C 147.832031 168.339844 147.566406 168.96875 147.316406 169.773438 C 146.835938 171.285156 146.4375 173.265625 146.128906 175.71875 C 145.824219 178.171875 145.550781 180.769531 145.320312 183.503906 C 145.179688 185.792969 145.066406 188.035156 144.980469 190.238281 C 145.699219 189.214844 146.335938 188.144531 146.890625 187.023438 Z M 146.890625 187.023438 " fill-opacity="1" fill-rule="nonzero"/></g><g clip-path="url(#52db19f9a4)"><path fill="#000000" d="M 198.503906 190.453125 C 198.242188 190.53125 197.964844 190.582031 197.734375 190.699219 C 196.5 191.363281 195.253906 192.015625 194.0625 192.738281 C 193.589844 193.027344 193.15625 193.457031 192.84375 193.910156 C 191.554688 195.8125 190.308594 197.734375 189.082031 199.679688 C 184.734375 206.59375 180.320312 213.464844 175.519531 220.085938 C 172.257812 224.585938 168.648438 228.753906 164.242188 232.164062 C 162.667969 233.382812 161.023438 234.472656 159.152344 235.214844 C 156.496094 236.265625 153.753906 236.878906 150.90625 237.070312 C 148.117188 237.261719 145.355469 237.140625 142.613281 236.582031 C 139.65625 235.976562 136.890625 234.855469 134.25 233.421875 C 129.113281 230.632812 125.160156 226.632812 122.417969 221.472656 C 120.636719 218.117188 119.640625 214.503906 119.132812 210.75 C 118.226562 204.148438 118.464844 197.558594 119.578125 190.996094 C 120.851562 183.539062 123.210938 176.433594 126.679688 169.710938 C 131.371094 160.605469 137.683594 152.816406 145.785156 146.523438 C 149.652344 143.519531 153.953125 141.433594 158.691406 140.277344 C 160.371094 139.871094 162.078125 139.558594 163.796875 139.367188 C 165.539062 139.167969 167.304688 139.105469 169.0625 139.105469 C 171.015625 139.105469 172.964844 139.351562 174.882812 139.78125 C 175.730469 139.972656 176.566406 140.199219 177.457031 140.414062 C 177.355469 140.691406 177.273438 140.898438 177.210938 141.113281 C 176.75 142.59375 176.242188 144.0625 175.851562 145.558594 C 175.3125 147.644531 174.96875 149.765625 175.007812 151.9375 C 175.023438 152.792969 175.105469 153.636719 175.484375 154.425781 C 175.890625 155.261719 176.710938 155.707031 177.609375 155.53125 C 178.0625 155.445312 178.523438 155.339844 178.945312 155.171875 C 181.792969 154.058594 184.382812 152.503906 186.707031 150.511719 C 188.214844 149.214844 189.527344 147.757812 190.417969 145.941406 C 191.117188 144.515625 191.109375 143.105469 190.355469 141.703125 C 189.941406 140.929688 189.402344 140.269531 188.75 139.695312 C 187.4375 138.539062 185.902344 137.769531 184.28125 137.171875 C 183.605469 136.921875 183.628906 137.027344 183.929688 136.332031 C 185.265625 133.28125 186.945312 130.445312 189.058594 127.882812 C 189.988281 126.75 190.96875 125.683594 192.28125 124.96875 C 192.867188 124.640625 193.386719 124.195312 193.917969 123.78125 C 194.070312 123.667969 194.179688 123.492188 194.308594 123.351562 C 194.285156 123.292969 194.25 123.238281 194.226562 123.183594 C 193.957031 123.246094 193.671875 123.261719 193.425781 123.375 C 190.539062 124.585938 187.820312 126.082031 185.503906 128.226562 C 183.207031 130.351562 181.417969 132.875 179.859375 135.578125 C 179.699219 135.855469 179.535156 135.917969 179.222656 135.878906 C 178.285156 135.738281 177.339844 135.59375 176.390625 135.519531 C 174.316406 135.363281 172.242188 135.394531 170.167969 135.59375 C 167.230469 135.871094 164.355469 136.421875 161.546875 137.296875 C 157.417969 138.582031 153.539062 140.414062 149.785156 142.523438 C 140.816406 147.558594 133.222656 154.183594 127.125 162.46875 C 117.804688 175.070312 112.882812 189.226562 112.523438 204.933594 C 112.429688 209.125 112.699219 213.300781 113.664062 217.394531 C 114.347656 220.316406 115.300781 223.136719 116.8125 225.742188 C 120.429688 231.980469 125.675781 236.28125 132.347656 238.878906 C 134.964844 239.898438 137.667969 240.527344 140.476562 240.726562 C 143.355469 240.933594 146.214844 240.8125 149.054688 240.277344 C 151.804688 239.761719 154.445312 238.871094 156.992188 237.699219 C 164.78125 234.105469 171.558594 229.136719 177.1875 222.628906 C 180.011719 219.359375 182.445312 215.800781 184.917969 212.273438 C 188.398438 207.292969 191.644531 202.15625 194.832031 196.984375 C 196.015625 195.066406 197.167969 193.128906 198.332031 191.195312 C 198.449219 190.996094 198.523438 190.757812 198.609375 190.53125 C 198.570312 190.515625 198.539062 190.484375 198.503906 190.453125 Z M 181.15625 146.878906 C 181.3125 145.550781 181.5625 144.234375 181.777344 142.914062 C 181.792969 142.800781 181.847656 142.699219 181.894531 142.539062 C 182.769531 143.128906 183.476562 143.804688 184.035156 144.640625 C 185.058594 146.210938 185.164062 147.820312 184.160156 149.429688 C 183.691406 150.179688 183.121094 150.855469 182.59375 151.574219 C 182.410156 151.820312 182.238281 151.78125 182.03125 151.613281 C 181.609375 151.269531 181.417969 150.792969 181.289062 150.28125 C 181.019531 149.160156 181.019531 148.019531 181.15625 146.878906 Z M 181.15625 146.878906 " fill-opacity="1" fill-rule="nonzero"/></g></svg>