<svg xmlns="http://www.w3.org/2000/svg" xmlns:xlink="http://www.w3.org/1999/xlink" width="500" zoomAndPan="magnify" viewBox="0 0 375 374.999991" height="500" preserveAspectRatio="xMidYMid meet" version="1.0"><defs><g/><clipPath id="f73aae32c4"><path d="M 19 22.125 L 277 22.125 L 277 352.875 L 19 352.875 Z M 19 22.125 " clip-rule="nonzero"/></clipPath><clipPath id="ed1f55c6bd"><path d="M 97 22.125 L 356 22.125 L 356 352.875 L 97 352.875 Z M 97 22.125 " clip-rule="nonzero"/></clipPath></defs><rect x="-37.5" width="450" fill="#ffffff" y="-37.499999" height="449.999989" fill-opacity="1"/><rect x="-37.5" width="450" fill="#ffffff" y="-37.499999" height="449.999989" fill-opacity="1"/><rect x="-37.5" width="450" fill="#ffffff" y="-37.499999" height="449.999989" fill-opacity="1"/><g clip-path="url(#f73aae32c4)"><path fill="#1b252f" d="M 19.269531 22.125 L 276.800781 179.101562 L 19.601562 352.875 Z M 19.269531 22.125 " fill-opacity="1" fill-rule="nonzero"/></g><g clip-path="url(#ed1f55c6bd)"><path fill="#1b252f" d="M 100.832031 352.65625 C 100.285156 352.65625 99.734375 352.546875 99.296875 352.324219 C 98.199219 351.777344 97.539062 350.679688 97.539062 349.472656 L 97.101562 25.636719 C 97.101562 24.429688 97.757812 23.332031 98.746094 22.785156 C 99.734375 22.234375 101.050781 22.234375 102.039062 22.894531 L 354.191406 176.578125 C 355.179688 177.125 355.730469 178.222656 355.730469 179.320312 C 355.730469 180.417969 355.179688 181.515625 354.300781 182.175781 L 102.699219 352.105469 C 102.152344 352.4375 101.492188 352.65625 100.832031 352.65625 Z M 103.6875 31.457031 L 104.125 343.105469 L 346.398438 179.429688 Z M 103.6875 31.457031 " fill-opacity="1" fill-rule="nonzero"/></g><g fill="#ffffff" fill-opacity="1"><g transform="translate(47.015728, 201.19408)"><g><path d="M 49.234375 -22.953125 L 22.5 -22.953125 L 22.5 17.09375 L 6.390625 17.09375 L 6.390625 -67.5 L 27 -67.5 L 27 -62.8125 L 22.5 -58.6875 L 22.5 -32.84375 L 49.234375 -32.84375 L 49.234375 -67.5 L 69.84375 -67.5 L 69.84375 -62.8125 L 65.34375 -58.6875 L 65.34375 17.09375 L 49.234375 17.09375 Z M 49.234375 -22.953125 "/></g></g></g><g fill="#ffffff" fill-opacity="1"><g transform="translate(121.99324, 194.448722)"><g><path d="M 4.140625 -16.734375 C 4.140625 -22.378906 4.457031 -27.039062 5.09375 -30.71875 C 5.738281 -34.394531 6.820312 -37.316406 8.34375 -39.484375 C 9.820312 -41.597656 11.789062 -43.082031 14.25 -43.9375 C 16.707031 -44.800781 19.738281 -45.234375 23.34375 -45.234375 C 26.738281 -45.234375 29.554688 -44.722656 31.796875 -43.703125 C 34.035156 -42.691406 35.816406 -41.363281 37.140625 -39.71875 C 38.460938 -38.039062 39.390625 -36.140625 39.921875 -34.015625 C 40.460938 -31.898438 40.773438 -29.742188 40.859375 -27.546875 L 30.125 -27.546875 C 30.039062 -29.378906 29.898438 -30.945312 29.703125 -32.25 C 29.503906 -33.550781 29.164062 -34.617188 28.6875 -35.453125 C 28.164062 -36.296875 27.472656 -36.914062 26.609375 -37.3125 C 25.742188 -37.71875 24.613281 -37.921875 23.21875 -37.921875 C 21.738281 -37.921875 20.46875 -37.71875 19.40625 -37.3125 C 18.34375 -36.914062 17.472656 -36 16.796875 -34.5625 C 16.117188 -33.082031 15.617188 -30.941406 15.296875 -28.140625 C 14.972656 -25.335938 14.8125 -21.535156 14.8125 -16.734375 C 14.8125 -11.972656 14.972656 -8.203125 15.296875 -5.421875 C 15.617188 -2.648438 16.117188 -0.539062 16.796875 0.90625 C 17.472656 2.34375 18.34375 3.269531 19.40625 3.6875 C 20.46875 4.101562 21.738281 4.3125 23.21875 4.3125 C 24.65625 4.3125 25.820312 4.101562 26.71875 3.6875 C 27.625 3.269531 28.335938 2.601562 28.859375 1.6875 C 29.378906 0.757812 29.738281 -0.460938 29.9375 -1.984375 C 30.132812 -3.503906 30.273438 -5.34375 30.359375 -7.5 L 41.09375 -7.5 C 41.019531 -4.9375 40.710938 -2.492188 40.171875 -0.171875 C 39.628906 2.140625 38.695312 4.175781 37.375 5.9375 C 36.019531 7.695312 34.210938 9.097656 31.953125 10.140625 C 29.691406 11.179688 26.820312 11.703125 23.34375 11.703125 C 19.65625 11.703125 16.582031 11.269531 14.125 10.40625 C 11.664062 9.550781 9.695312 8.0625 8.21875 5.9375 C 6.738281 3.78125 5.6875 0.875 5.0625 -2.78125 C 4.445312 -6.445312 4.140625 -11.097656 4.140625 -16.734375 Z M 4.140625 -16.734375 "/></g></g></g></svg>